mtllib scene.mtl
o Object_2
usemtl Scene_-_Root
v -1 0.9999999999999998 1.0000000000000002
v 1 0.9999999999999998 1.0000000000000002
v 1 1.0000000000000002 -0.9999999999999998
v -1 1.0000000000000002 -0.9999999999999998
v -1 -0.9999999999999998 -1.0000000000000002
v 1 -0.9999999999999998 -1.0000000000000002
v 1 -1.0000000000000002 0.9999999999999998
v -1 -1.0000000000000002 0.9999999999999998
v 1 -1.0000000000000002 0.9999999999999998
v 1 -1.0000000000000002 0.9999999999999998
v 1 0.9999999999999998 1.0000000000000002
v 1 0.9999999999999998 1.0000000000000002
v -1 1.0000000000000002 -0.9999999999999998
v -1 1.0000000000000002 -0.9999999999999998
v -1 -0.9999999999999998 -1.0000000000000002
v -1 -0.9999999999999998 -1.0000000000000002
v -1 -1.0000000000000002 0.9999999999999998
v -1 -1.0000000000000002 0.9999999999999998
v -1 0.9999999999999998 1.0000000000000002
v -1 0.9999999999999998 1.0000000000000002
v 1 -0.9999999999999998 -1.0000000000000002
v 1 -0.9999999999999998 -1.0000000000000002
v 1 1.0000000000000002 -0.9999999999999998
v 1 1.0000000000000002 -0.9999999999999998
vn 0 1 2.220446049250313e-16
vn 0 1 2.220446049250313e-16
vn 0 1 2.220446049250313e-16
vn 0 1 2.220446049250313e-16
vn 0 -1 -2.220446049250313e-16
vn 0 -1 -2.220446049250313e-16
vn 0 -1 -2.220446049250313e-16
vn 0 -1 -2.220446049250313e-16
vn 0 -2.220446049250313e-16 1
vn 1 0 0
vn 0 -2.220446049250313e-16 1
vn 1 0 0
vn 0 2.220446049250313e-16 -1
vn -1 0 0
vn 0 2.220446049250313e-16 -1
vn -1 0 0
vn 0 -2.220446049250313e-16 1
vn -1 0 0
vn 0 -2.220446049250313e-16 1
vn -1 0 0
vn 0 2.220446049250313e-16 -1
vn 1 0 0
vn 0 2.220446049250313e-16 -1
vn 1 0 0
f 1//1 2//2 3//3
f 3//3 4//4 1//1
f 5//5 6//6 7//7
f 5//5 7//7 8//8
f 17//17 9//9 11//11
f 11//11 19//19 17//17
f 13//13 23//23 21//21
f 13//13 21//21 15//15
f 22//22 24//24 12//12
f 22//22 12//12 10//10
f 18//18 20//20 14//14
f 14//14 16//16 18//18
